<?xml version="1.0" encoding="UTF-8" standalone="no"?>
<!DOCTYPE svg PUBLIC "-//W3C//DTD SVG 1.1//EN" "http://www.w3.org/Graphics/SVG/1.1/DTD/svg11.dtd">
<svg width="100%" height="100%" viewBox="0 0 412 139" version="1.1" xmlns="http://www.w3.org/2000/svg" xmlns:xlink="http://www.w3.org/1999/xlink" xml:space="preserve" xmlns:serif="http://www.serif.com/" style="fill-rule:evenodd;clip-rule:evenodd;stroke-linejoin:round;stroke-miterlimit:2;">
    <g transform="matrix(1,0,0,1,-212,0)">
        <g id="Artboard2" transform="matrix(0.7894,0,0,0.397091,44.4636,0)">
            <rect x="212.232" y="0" width="521.454" height="349.819" style="fill:none;"/>
            <clipPath id="_clip1">
                <rect x="212.232" y="0" width="521.454" height="349.819"/>
            </clipPath>
            <g clip-path="url(#_clip1)">
                <g transform="matrix(1.26678,0,0,2.51831,-127.321,-134.846)">
                    <path d="M274.754,187.118L671.699,187.118C676.427,187.118 678.41,183.763 678.41,172.781C678.41,149.141 662.853,121.229 659.04,115.891C655.227,110.553 653.702,109.638 648.669,109.638C643.636,109.638 473.727,109.485 473.727,109.485L472.727,109.485C472.727,109.485 302.818,109.638 297.785,109.638C292.752,109.638 291.227,110.553 287.414,115.891C283.601,121.229 268.044,149.141 268.044,172.781C268.044,183.763 270.026,187.118 274.754,187.118Z" style="fill:rgb(22,22,22);"/>
                </g>
                <g transform="matrix(1.26678,0,0,2.51831,-33.9482,-134.846)">
                    <path d="M384.129,189.796C382.941,191.311 381.093,192.285 379.02,192.285C375.437,192.285 372.529,189.376 372.529,185.794C372.529,182.211 375.437,179.302 379.02,179.302C381.777,179.302 384.134,181.025 385.075,183.451L413.962,183.451C414.903,181.025 417.26,179.302 420.017,179.302C423.6,179.302 426.508,182.211 426.508,185.794C426.508,189.376 423.6,192.285 420.017,192.285C417.944,192.285 416.096,191.311 414.908,189.796L384.129,189.796Z" style="fill:rgb(22,22,22);"/>
                </g>
                <g transform="matrix(1.26678,0,0,2.51831,-227.347,-134.846)">
                    <path d="M384.129,189.796C382.941,191.311 381.093,192.285 379.02,192.285C375.437,192.285 372.529,189.376 372.529,185.794C372.529,182.211 375.437,179.302 379.02,179.302C381.777,179.302 384.134,181.025 385.075,183.451L413.962,183.451C414.903,181.025 417.26,179.302 420.017,179.302C423.6,179.302 426.508,182.211 426.508,185.794C426.508,189.376 423.6,192.285 420.017,192.285C417.944,192.285 416.096,191.311 414.908,189.796L384.129,189.796Z" style="fill:rgb(22,22,22);"/>
                </g>
                <g transform="matrix(1.26678,0,0,2.51831,159.45,-134.846)">
                    <path d="M384.129,189.796C382.941,191.311 381.093,192.285 379.02,192.285C375.437,192.285 372.529,189.376 372.529,185.794C372.529,182.211 375.437,179.302 379.02,179.302C381.777,179.302 384.134,181.025 385.075,183.451L413.962,183.451C414.903,181.025 417.26,179.302 420.017,179.302C423.6,179.302 426.508,182.211 426.508,185.794C426.508,189.376 423.6,192.285 420.017,192.285C417.944,192.285 416.096,191.311 414.908,189.796L384.129,189.796Z" style="fill:rgb(22,22,22);"/>
                </g>
                <g transform="matrix(1.26678,0,0,2.51831,-127.321,-132.327)">
                    <path d="M511.267,109.425L511.267,105.307L512.605,105.092L512.605,101.531C512.605,99.907 513.042,98.658 515.478,98.658C517.915,96.658 547.089,75.543 547.089,75.543L513.879,55.773L511.267,55.773L511.267,52.546L519.565,52.546L519.565,55.773L517.874,55.773L549.713,75.309L517.103,99.61C517.103,100.235 517.227,101.047 517.227,101.047L534.282,101.047L534.282,105.045L539.468,105.045L539.468,109.485L511.267,109.425Z" style="fill:rgb(22,22,22);"/>
                </g>
                <g transform="matrix(1.26678,0,0,2.51831,-127.321,-134.846)">
                    <circle cx="548.588" cy="75.543" r="3.842" style="fill:rgb(22,22,22);"/>
                </g>
                <g transform="matrix(0.918229,0,0,1.8254,39.1866,-28.7185)">
                    <text x="448.329px" y="174.909px" style="font-family:'ArialMT', 'Arial', sans-serif;font-size:79.172px;fill:white;">1</text>
                </g>
            </g>
        </g>
    </g>
</svg>
