<?xml version="1.0" encoding="UTF-8" standalone="no"?>
<!DOCTYPE svg PUBLIC "-//W3C//DTD SVG 1.1//EN" "http://www.w3.org/Graphics/SVG/1.1/DTD/svg11.dtd">
<svg width="100%" height="100%" viewBox="0 0 198 350" version="1.1" xmlns="http://www.w3.org/2000/svg" xmlns:xlink="http://www.w3.org/1999/xlink" xml:space="preserve" xmlns:serif="http://www.serif.com/" style="fill-rule:evenodd;clip-rule:evenodd;stroke-linejoin:round;stroke-miterlimit:2;">
    <g id="Artboard1" transform="matrix(0.328486,0,0,0.583031,0,0)">
        <rect x="0" y="0" width="600" height="600" style="fill:none;"/>
        <g transform="matrix(3.04427,0,0,1.71517,-603.61,-231.419)">
            <path d="M271.366,444.662C271.366,444.662 247.163,468.866 238.086,477.942C229.01,487.018 224.164,484.266 234.287,474.143C244.411,464.02 257.069,450.571 263.14,444.5C269.212,438.428 271.366,444.662 271.366,444.662Z" style="fill:rgb(22,22,22);"/>
        </g>
        <g transform="matrix(-3.04427,0,0,1.71517,1197.68,-231.419)">
            <path d="M271.366,444.662C271.366,444.662 247.163,468.866 238.086,477.942C229.01,487.018 224.164,484.266 234.287,474.143C244.411,464.02 257.069,450.571 263.14,444.5C269.212,438.428 271.366,444.662 271.366,444.662Z" style="fill:rgb(22,22,22);"/>
        </g>
        <g transform="matrix(3.04427,0,0,1.71517,-616.248,-231.419)">
            <path d="M301,444.29C301,444.29 347.107,444.5 369.36,444.5C391.613,444.5 397.571,434.162 397.571,416.289C397.571,398.415 391.986,214.542 391.986,195.654C391.986,176.766 383.166,169.914 367.72,169.914L301.39,169.914L301.475,137.127C301.475,137.127 309.44,137.206 318.342,137.206C327.245,137.206 327.869,140.798 327.869,142.594C327.869,144.39 330.602,144.234 330.602,142.594C330.602,140.954 329.826,134.925 318.283,134.925L281.717,134.925C270.174,134.925 269.398,140.954 269.398,142.594C269.398,144.234 272.131,144.39 272.131,142.594C272.131,140.798 272.755,137.206 281.658,137.206C290.56,137.206 298.525,137.127 298.525,137.127L298.61,169.914L232.28,169.914C216.834,169.914 208.014,176.766 208.014,195.654C208.014,214.542 202.429,398.415 202.429,416.289C202.429,434.162 208.387,444.5 230.64,444.5C252.893,444.5 299,444.29 299,444.29L301,444.29ZM250.401,380.358C256.731,380.358 261.87,385.497 261.87,391.827C261.87,398.156 256.731,403.295 250.401,403.295C244.071,403.295 238.932,398.156 238.932,391.827C238.932,385.497 244.071,380.358 250.401,380.358ZM349.599,380.358C355.929,380.358 361.068,385.497 361.068,391.827C361.068,398.156 355.929,403.295 349.599,403.295C343.269,403.295 338.13,398.156 338.13,391.827C338.13,385.497 343.269,380.358 349.599,380.358ZM370.483,208.889L230.126,208.889L225.883,340.822L374.763,340.822L370.483,208.889ZM349.599,182.844C352.678,182.844 355.178,185.344 355.178,188.423C355.178,191.502 352.678,194.002 349.599,194.002C346.52,194.002 344.02,191.502 344.02,188.423C344.02,185.344 346.52,182.844 349.599,182.844ZM250.401,182.844C253.48,182.844 255.98,185.344 255.98,188.423C255.98,191.502 253.48,194.002 250.401,194.002C247.322,194.002 244.822,191.502 244.822,188.423C244.822,185.344 247.322,182.844 250.401,182.844Z" style="fill:rgb(22,22,22);"/>
        </g>
    </g>
</svg>
